<?xml version="1.0" encoding="UTF-8"?>
<svg width="24px" height="24px" viewBox="0 0 24 24" version="1.1" xmlns="http://www.w3.org/2000/svg" xmlns:xlink="http://www.w3.org/1999/xlink">
    <!-- Generator: Sketch 52.6 (67491) - http://www.bohemiancoding.com/sketch -->
    <title>Facebook-black</title>
    <desc>Created with Sketch.</desc>
    <g id="Landing-Page" stroke="none" stroke-width="1" fill="none" fill-rule="evenodd">
        <g id="A1-Landing-Page-Copy-2" transform="translate(-897.000000, -5428.000000)" fill="#888f99">
            <g id="Group" transform="translate(769.000000, 5428.000000)">
                <path d="M140.819178,24 L129.324616,24 C128.592836,24 128,23.4067958 128,22.6753014 L128,1.32460548 C128,0.592924852 128.592929,-1.77635684e-15 129.324616,-1.77635684e-15 L150.675477,-1.77635684e-15 C151.406977,-1.77635684e-15 152,0.592924852 152,1.32460548 L152,22.6753014 C152,23.4068889 151.406884,24 150.675477,24 L144.559653,24 L144.559653,14.7058773 L147.679261,14.7058773 L148.146378,11.0837928 L144.559653,11.0837928 L144.559653,8.7713207 C144.559653,7.72264365 144.850856,7.00800484 146.354645,7.00800484 L148.272656,7.00716672 L148.272656,3.76754527 C147.940943,3.72340417 146.802392,3.62478513 145.477776,3.62478513 C142.712417,3.62478513 140.819178,5.31276313 140.819178,8.41260443 L140.819178,11.0837928 L137.691561,11.0837928 L137.691561,14.7058773 L140.819178,14.7058773 L140.819178,24 L140.819178,24 Z" id="Facebook"></path>
            </g>
        </g>
    </g>
</svg>