<?xml version="1.0" encoding="UTF-8"?>
<svg width="24px" height="24px" viewBox="0 0 24 24" version="1.1" xmlns="http://www.w3.org/2000/svg" xmlns:xlink="http://www.w3.org/1999/xlink">
    <!-- Generator: Sketch 52.6 (67491) - http://www.bohemiancoding.com/sketch -->
    <title>Instagram-black</title>
    <desc>Created with Sketch.</desc>
    <g id="Landing-Page" stroke="none" stroke-width="1" fill="none" fill-rule="evenodd">
        <g id="A1-Landing-Page-Copy-2" transform="translate(-833.000000, -5428.000000)" fill="#888f99">
            <g id="Group" transform="translate(769.000000, 5428.000000)">
                <path d="M76.0000238,-1.77635684e-15 C79.2590043,-1.77635684e-15 79.6676571,0.0138138818 80.9475847,0.0722132578 C82.2248447,0.130469732 83.0971676,0.333343257 83.860456,0.630008276 C84.6495621,0.936628817 85.3187732,1.34694874 85.985936,2.01406396 C86.6530513,2.68122682 87.0633712,3.35043794 87.3700394,4.13954402 C87.6666567,4.90283244 87.8695303,5.77515526 87.9277867,7.05241535 C87.9861861,8.33234294 88,8.74099567 88,12.0000238 C88,15.2590043 87.9861861,15.6676571 87.9277867,16.9475847 C87.8695303,18.2248447 87.6666567,19.0971676 87.3700394,19.860456 C87.0633712,20.6495621 86.6530513,21.3187732 85.985936,21.985936 C85.3187732,22.6530513 84.6495621,23.0633712 83.860456,23.3700394 C83.0971676,23.6666567 82.2248447,23.8695303 80.9475847,23.9277867 C79.6676571,23.9861861 79.2590043,24 76.0000238,24 C72.7409957,24 72.3323429,23.9861861 71.0524153,23.9277867 C69.7751553,23.8695303 68.9028324,23.6666567 68.139544,23.3700394 C67.3504379,23.0633712 66.6812268,22.6530513 66.014064,21.985936 C65.3469487,21.3187732 64.9366288,20.6495621 64.6300083,19.860456 C64.3333433,19.0971676 64.1304697,18.2248447 64.0722133,16.9475847 C64.0138139,15.6676571 64,15.2590043 64,12.0000238 C64,8.74099567 64.0138139,8.33234294 64.0722133,7.05241535 C64.1304697,5.77515526 64.3333433,4.90283244 64.6300083,4.13954402 C64.9366288,3.35043794 65.3469487,2.68122682 66.014064,2.01406396 C66.6812268,1.34694874 67.3504379,0.936628817 68.139544,0.630008276 C68.9028324,0.333343257 69.7751553,0.130469732 71.0524153,0.0722132578 C72.3323429,0.0138138818 72.7409957,-1.77635684e-15 76.0000238,-1.77635684e-15 Z M76.0000238,2.1621583 C72.7958701,2.1621583 72.4163218,2.17440026 71.1509702,2.23213276 C69.9809821,2.28548292 69.3455912,2.48097316 68.9227435,2.64531072 C68.3626144,2.86299845 67.9628692,3.12303286 67.5429749,3.54297487 C67.1230329,3.96286924 66.8629984,4.3626144 66.6453107,4.92274348 C66.4809732,5.34559117 66.2854829,5.9809821 66.2321328,7.15097025 C66.1744003,8.41632182 66.1621583,8.79587013 66.1621583,12.0000238 C66.1621583,15.2041299 66.1744003,15.5836782 66.2321328,16.8490298 C66.2854829,18.0190179 66.4809732,18.6544088 66.6453107,19.0772565 C66.8629984,19.6373856 67.1230805,20.0371308 67.5429749,20.4570251 C67.9628692,20.8769671 68.3626144,21.1370016 68.9227435,21.3546893 C69.3455912,21.5190268 69.9809821,21.7145171 71.1509702,21.7678672 C72.4161789,21.8255997 72.795632,21.8378417 76.0000238,21.8378417 C79.204368,21.8378417 79.5838687,21.8255997 80.8490298,21.7678672 C82.0190179,21.7145171 82.6544088,21.5190268 83.0772565,21.3546893 C83.6373856,21.1370016 84.0371308,20.8769671 84.4570251,20.4570251 C84.8769671,20.0371308 85.1370016,19.6373856 85.3546893,19.0772565 C85.5190268,18.6544088 85.7145171,18.0190179 85.7678672,16.8490298 C85.8255997,15.5836782 85.8378417,15.2041299 85.8378417,12.0000238 C85.8378417,8.79587013 85.8255997,8.41632182 85.7678672,7.15097025 C85.7145171,5.9809821 85.5190268,5.34559117 85.3546893,4.92274348 C85.1370016,4.3626144 84.8769671,3.96286924 84.4570251,3.54297487 C84.0371308,3.12303286 83.6373856,2.86299845 83.0772565,2.64531072 C82.6544088,2.48097316 82.0190179,2.28548292 80.8490298,2.23213276 C79.5836782,2.17440026 79.2041299,2.1621583 76.0000238,2.1621583 Z M76.0000238,5.8378417 C79.4032879,5.8378417 82.1621583,8.59671206 82.1621583,12.0000238 C82.1621583,15.4032879 79.4032879,18.1621583 76.0000238,18.1621583 C72.5967121,18.1621583 69.8378417,15.4032879 69.8378417,12.0000238 C69.8378417,8.59671206 72.5967121,5.8378417 76.0000238,5.8378417 Z M76.0000238,16 C78.2091493,16 80,14.2091493 80,12.0000238 C80,9.79085069 78.2091493,8 76.0000238,8 C73.7908507,8 72,9.79085069 72,12.0000238 C72,14.2091493 73.7908507,16 76.0000238,16 Z M83.8456418,5.59438394 C83.8456418,6.38968246 83.2009146,7.03436203 82.4056161,7.03436203 C81.6103652,7.03436203 80.965638,6.38968246 80.965638,5.59438394 C80.965638,4.79908543 81.6103652,4.15435822 82.4056161,4.15435822 C83.2009146,4.15435822 83.8456418,4.79908543 83.8456418,5.59438394 Z" id="Instagram"></path>
            </g>
        </g>
    </g>
</svg>