<?xml version="1.0" encoding="UTF-8"?>
<svg width="240px" height="240px" viewBox="0 0 240 240" version="1.1" xmlns="http://www.w3.org/2000/svg" xmlns:xlink="http://www.w3.org/1999/xlink">
    <!-- Generator: Sketch 52.6 (67491) - http://www.bohemiancoding.com/sketch -->
    <title>Combined Shape</title>
    <desc>Created with Sketch.</desc>
    <g id="Page-1" stroke="none" stroke-width="1" fill="none" fill-rule="evenodd">
        <path d="M120,240 C53.72583,240 0,186.27417 0,120 C0,53.72583 53.72583,0 120,0 C186.27417,0 240,53.72583 240,120 C240,186.27417 186.27417,240 120,240 Z M100.04,144.41 L100.041715,144.411267 L98,175 C101,175 102.3255,173.628 104,172 L118.413553,157.984621 L148.4,180.139 C153.9185,183.1839 157.9014,181.6074 159.276,175.0155 L178.961,82.2525 C180.9764,74.1723 175.8809,70.5075 170.6016,72.9043 L55.0116,117.4753 C47.1215,120.64 47.1675,125.0419 53.5734,127.0033 L83.2364,136.2616 L151.9094,92.9366 C155.1513,90.9707 158.1267,92.02761 155.6846,94.195 L100.04,144.41 Z" id="Combined-Shape" fill="#888f99"></path>
    </g>
</svg>